<?xml version="1.0" standalone="no"?>
<!DOCTYPE svg PUBLIC "-//W3C//DTD SVG 20010904//EN"
 "http://www.w3.org/TR/2001/REC-SVG-20010904/DTD/svg10.dtd">
<svg version="1.0" xmlns="http://www.w3.org/2000/svg"
 width="700.000000pt" height="700.000000pt" viewBox="0 0 700.000000 700.000000"
 preserveAspectRatio="xMidYMid meet">
<metadata>
Created by potrace 1.14, written by Peter Selinger 2001-2017
</metadata>
<g transform="translate(0.000000,700.000000) scale(0.100000,-0.100000)"
fill="#000000" stroke="none">
<path d="M2219 6990 c-1019 -33 -1491 -184 -1812 -578 -239 -293 -340 -660
-389 -1417 -19 -284 -19 -2706 0 -2990 42 -642 120 -995 278 -1257 214 -355
530 -557 1022 -652 427 -83 892 -101 2447 -93 1219 6 1479 17 1838 78 748 127
1145 491 1291 1185 86 412 106 820 106 2234 0 1391 -20 1816 -102 2215 -126
617 -447 979 -1013 1141 -208 60 -462 97 -865 125 -190 13 -2450 20 -2801 9z
m2617 -1459 c391 -98 733 -188 760 -201 66 -32 154 -122 186 -190 14 -30 31
-82 37 -114 15 -80 15 -2330 1 -2407 -30 -159 -152 -268 -310 -276 -67 -4
-104 3 -334 60 -150 38 -269 73 -285 84 -60 44 -56 11 -90 988 -32 956 -31
945 -87 1060 -40 82 -150 192 -233 233 -109 54 -132 38 -57 -41 58 -60 92
-119 111 -193 14 -54 15 -202 13 -1265 l-3 -1204 -28 -57 c-35 -71 -119 -150
-184 -172 -103 -35 -127 -33 -428 43 -269 67 -281 71 -312 104 -24 27 -33 47
-37 88 -3 30 -17 430 -31 889 -28 904 -31 938 -87 1050 -57 113 -191 230 -306
264 -38 12 -41 -22 -5 -53 53 -45 102 -119 123 -187 20 -65 20 -89 20 -1270
l0 -1203 -22 -58 c-46 -123 -176 -213 -308 -213 -92 0 -1439 338 -1537 385
-118 58 -197 165 -222 299 -15 80 -15 2330 -1 2407 30 159 152 268 310 276 69
4 109 -4 500 -102 234 -58 433 -108 442 -111 15 -4 17 17 20 243 3 283 8 301
92 391 54 58 116 90 199 105 61 10 70 8 512 -102 248 -61 456 -111 463 -111 9
0 12 54 12 235 0 216 2 239 22 292 28 77 112 162 188 191 105 40 119 38 896
-157z"/>
</g>
</svg>
