<svg width="353" height="122" viewBox="0 0 353 122" fill="none" xmlns="http://www.w3.org/2000/svg">
<path fill-rule="evenodd" clip-rule="evenodd" d="M31.1199 119.707L174.647 119.707C189.754 119.707 202 107.46 202 92.3533C202 77.2465 189.754 65 174.647 65L33.5866 65C17.7987 65 5 77.7986 5 93.5866C5 108.012 16.6943 119.707 31.1199 119.707ZM174.647 121.707C190.858 121.707 204 108.565 204 92.3533C204 76.1419 190.858 63 174.647 63L33.5866 63C16.6941 63 3 76.6941 3 93.5866C3 109.117 15.5897 121.707 31.1199 121.707L174.647 121.707Z" fill="#212121"/>
<path d="M54.4354 105.707H51.2814L43.6054 94.9146H38.5514V105.707H35.8914V78.9166H44.4414C46.24 78.9166 47.8487 79.2586 49.2674 79.9426C50.686 80.6266 51.788 81.5766 52.5734 82.7926C53.3587 84.0086 53.7514 85.3892 53.7514 86.9346C53.7514 88.9612 53.0927 90.6839 51.7754 92.1026C50.458 93.4959 48.7227 94.3699 46.5694 94.7246L54.4354 105.707ZM38.5514 81.3866V92.4446H44.4414C46.392 92.4446 47.9627 91.9379 49.1534 90.9246C50.3694 89.9112 50.9774 88.5812 50.9774 86.9346C50.9774 85.2879 50.3694 83.9579 49.1534 82.9446C47.9627 81.9059 46.392 81.3866 44.4414 81.3866H38.5514Z" fill="#212121"/>
<path d="M64.9527 106.087C63.5594 106.087 62.3181 105.757 61.2288 105.099C60.1648 104.44 59.3288 103.515 58.7208 102.325C58.1381 101.134 57.8468 99.7786 57.8468 98.2586V86.3266H60.3167V98.2586C60.3167 99.9052 60.7601 101.248 61.6467 102.287C62.5588 103.3 63.7494 103.807 65.2187 103.807C66.2067 103.807 67.1187 103.566 67.9548 103.085C68.8161 102.603 69.4874 101.945 69.9688 101.109C70.4754 100.247 70.7288 99.2972 70.7288 98.2586V86.3266H73.1987V105.707H71.6787L70.8808 102.743C70.2221 103.832 69.3861 104.668 68.3727 105.251C67.3847 105.808 66.2447 106.087 64.9527 106.087Z" fill="#212121"/>
<path d="M86.9156 106.087C84.5342 106.087 82.5076 105.491 80.8356 104.301C79.1889 103.11 78.0236 101.489 77.3396 99.4366L79.8476 99.0186C81.2409 102.084 83.5969 103.617 86.9156 103.617C88.7649 103.617 90.2342 103.199 91.3236 102.363C92.4382 101.501 92.9956 100.374 92.9956 98.9806C92.9956 97.5112 92.4256 96.3839 91.2856 95.5986C90.1456 94.7879 88.5622 94.0532 86.5356 93.3946C84.9142 92.8626 83.5462 92.3052 82.4316 91.7226C81.3422 91.1399 80.4302 90.3672 79.6956 89.4046C78.9862 88.4166 78.6316 87.1879 78.6316 85.7186C78.6316 84.3252 78.9862 83.0839 79.6956 81.9946C80.4302 80.9052 81.4309 80.0566 82.6976 79.4486C83.9896 78.8406 85.4336 78.5366 87.0296 78.5366C89.1322 78.5366 90.9562 79.0812 92.5016 80.1706C94.0469 81.2346 95.1362 82.7292 95.7696 84.6546L93.2616 85.0726C92.7296 83.7806 91.9189 82.7799 90.8296 82.0706C89.7402 81.3612 88.4609 81.0066 86.9916 81.0066C85.3196 81.0066 83.9642 81.4246 82.9256 82.2606C81.9122 83.0712 81.4056 84.1479 81.4056 85.4906C81.4056 86.5039 81.6969 87.3652 82.2796 88.0746C82.8876 88.7586 83.6349 89.3159 84.5216 89.7466C85.4336 90.1772 86.5482 90.6206 87.8656 91.0766C89.4869 91.6339 90.8422 92.2166 91.9316 92.8246C93.0462 93.4072 93.9582 94.1926 94.6676 95.1806C95.4022 96.1432 95.7696 97.3339 95.7696 98.7526C95.7696 100.171 95.3896 101.438 94.6296 102.553C93.8949 103.667 92.8562 104.541 91.5136 105.175C90.1709 105.783 88.6382 106.087 86.9156 106.087Z" fill="#212121"/>
<path d="M110.978 103.427L110.75 105.707H107.71C105.861 105.707 104.442 105.225 103.454 104.263C102.491 103.275 102.01 101.881 102.01 100.083V88.6066H98.3999V86.3266H102.01L102.96 80.6266H104.48V86.3266H110.75V88.6066H104.48V100.083C104.48 102.312 105.557 103.427 107.71 103.427H110.978Z" fill="#212121"/>
<path d="M123.408 106.087C121.483 106.087 119.76 105.656 118.24 104.795C116.72 103.933 115.53 102.743 114.668 101.223C113.832 99.7026 113.414 97.9672 113.414 96.0166C113.414 94.0659 113.832 92.3306 114.668 90.8106C115.53 89.2906 116.72 88.0999 118.24 87.2386C119.76 86.3772 121.483 85.9466 123.408 85.9466C125.334 85.9466 127.056 86.3772 128.576 87.2386C130.096 88.0999 131.274 89.2906 132.11 90.8106C132.972 92.3306 133.402 94.0659 133.402 96.0166C133.402 97.9672 132.972 99.7026 132.11 101.223C131.274 102.743 130.096 103.933 128.576 104.795C127.056 105.656 125.334 106.087 123.408 106.087ZM123.408 103.807C124.852 103.807 126.132 103.477 127.246 102.819C128.386 102.16 129.26 101.248 129.868 100.083C130.502 98.8919 130.818 97.5366 130.818 96.0166C130.818 94.4966 130.502 93.1539 129.868 91.9886C129.26 90.7979 128.386 89.8732 127.246 89.2146C126.132 88.5559 124.852 88.2266 123.408 88.2266C121.964 88.2266 120.672 88.5559 119.532 89.2146C118.418 89.8732 117.544 90.7979 116.91 91.9886C116.302 93.1539 115.998 94.4966 115.998 96.0166C115.998 97.5366 116.302 98.8919 116.91 100.083C117.544 101.248 118.418 102.16 119.532 102.819C120.672 103.477 121.964 103.807 123.408 103.807Z" fill="#212121"/>
<path d="M137.748 105.707V86.3266H139.268L139.99 89.0626C141.079 87.2386 142.7 86.3266 144.854 86.3266H145.918L146.146 88.7206H144.74C143.22 88.7206 142.08 89.2272 141.32 90.2406C140.585 91.2286 140.218 92.4699 140.218 93.9646V105.707H137.748Z" fill="#212121"/>
<path d="M166.971 96.8146H150.251C150.403 98.9172 151.151 100.615 152.493 101.907C153.861 103.173 155.584 103.807 157.661 103.807C159.131 103.807 160.435 103.503 161.575 102.895C162.715 102.261 163.551 101.451 164.083 100.463L166.401 100.843C165.565 102.54 164.362 103.845 162.791 104.757C161.221 105.643 159.473 106.087 157.547 106.087C155.622 106.087 153.912 105.656 152.417 104.795C150.923 103.933 149.745 102.743 148.883 101.223C148.047 99.7026 147.629 97.9672 147.629 96.0166C147.629 94.0659 148.035 92.3306 148.845 90.8106C149.681 89.2906 150.834 88.0999 152.303 87.2386C153.773 86.3772 155.445 85.9466 157.319 85.9466C159.194 85.9466 160.866 86.3772 162.335 87.2386C163.805 88.0999 164.945 89.2906 165.755 90.8106C166.591 92.3306 167.009 94.0659 167.009 96.0166L166.971 96.8146ZM157.319 88.2266C155.47 88.2266 153.912 88.8092 152.645 89.9746C151.379 91.1146 150.606 92.6346 150.327 94.5346H164.311C164.033 92.6346 163.26 91.1146 161.993 89.9746C160.752 88.8092 159.194 88.2266 157.319 88.2266Z" fill="#212121"/>
<path fill-rule="evenodd" clip-rule="evenodd" d="M327.913 8H145V62.7066H351V31.0868C351 18.3363 340.664 8 327.913 8ZM143 6V64.7066H353V31.0868C353 17.2318 341.768 6 327.913 6H143Z" fill="#212121"/>
<path d="M187.656 48.353H184.35L176.142 39.651H174.964V48.353H172.494V28.973H174.964V37.371H176.18L183.856 28.973H186.896L178.27 38.397L187.656 48.353Z" fill="#212121"/>
<path d="M198.752 48.733C196.827 48.733 195.104 48.3024 193.584 47.441C192.064 46.5797 190.873 45.389 190.012 43.869C189.176 42.349 188.758 40.6137 188.758 38.663C188.758 36.7124 189.176 34.977 190.012 33.457C190.873 31.937 192.064 30.7464 193.584 29.885C195.104 29.0237 196.827 28.593 198.752 28.593C200.677 28.593 202.4 29.0237 203.92 29.885C205.44 30.7464 206.618 31.937 207.454 33.457C208.315 34.977 208.746 36.7124 208.746 38.663C208.746 40.6137 208.315 42.349 207.454 43.869C206.618 45.389 205.44 46.5797 203.92 47.441C202.4 48.3024 200.677 48.733 198.752 48.733ZM198.752 46.453C200.196 46.453 201.475 46.1237 202.59 45.465C203.73 44.8064 204.604 43.8944 205.212 42.729C205.845 41.5384 206.162 40.183 206.162 38.663C206.162 37.143 205.845 35.8004 205.212 34.635C204.604 33.4444 203.73 32.5197 202.59 31.861C201.475 31.2024 200.196 30.873 198.752 30.873C197.308 30.873 196.016 31.2024 194.876 31.861C193.761 32.5197 192.887 33.4444 192.254 34.635C191.646 35.8004 191.342 37.143 191.342 38.663C191.342 40.183 191.646 41.5384 192.254 42.729C192.887 43.8944 193.761 44.8064 194.876 45.465C196.016 46.1237 197.308 46.453 198.752 46.453Z" fill="#212121"/>
<path d="M215.561 48.353H213.091V28.973H217.537L223.047 45.503H223.503L229.241 28.973H233.611V48.353H231.141V31.405H230.685L224.795 48.353H221.679L216.017 31.405H215.561V48.353Z" fill="#212121"/>
<path d="M246.174 28.593C248.403 28.593 250.164 29.3657 251.456 30.911C252.773 32.4564 253.432 34.6603 253.432 37.523V48.353H251.912L251.076 45.237C250.392 46.301 249.531 47.1497 248.492 47.783C247.479 48.4164 246.187 48.733 244.616 48.733C242.64 48.733 241.031 48.1757 239.79 47.061C238.549 45.921 237.928 44.4644 237.928 42.691C237.928 40.8417 238.65 39.385 240.094 38.321C241.538 37.2317 243.603 36.687 246.288 36.687H250.962C250.861 34.711 250.379 33.229 249.518 32.241C248.682 31.253 247.529 30.759 246.06 30.759C245.047 30.759 244.122 30.987 243.286 31.443C242.45 31.899 241.791 32.5577 241.31 33.419L238.992 33.039C239.549 31.671 240.474 30.5944 241.766 29.809C243.058 28.9984 244.527 28.593 246.174 28.593ZM244.958 46.567C246.731 46.567 248.175 45.997 249.29 44.857C250.405 43.6917 250.962 41.9564 250.962 39.651V38.967H246.288C242.387 38.967 240.436 40.2084 240.436 42.691C240.436 43.8817 240.841 44.8317 241.652 45.541C242.488 46.225 243.59 46.567 244.958 46.567Z" fill="#212121"/>
<path d="M271.809 37.409V28.973H274.279V48.353H271.809V39.689H261.169V48.353H258.699V28.973H261.169V37.409H271.809Z" fill="#212121"/>
<path d="M277.65 54.053V46.073H277.916C279.031 46.073 279.867 45.5917 280.424 44.629C281.007 43.6664 281.399 41.9437 281.602 39.461L282.476 28.973H295.206V46.073H298.36V54.053H295.89V48.353H280.12V54.053H277.65ZM292.736 46.073V31.253H284.756L284.072 39.613C283.92 41.3864 283.679 42.7924 283.35 43.831C283.046 44.8444 282.653 45.5917 282.172 46.073H292.736Z" fill="#212121"/>
<path d="M301.931 48.353V28.973H304.401V34.977H308.011C309.455 34.977 310.747 35.2684 311.887 35.851C313.027 36.4084 313.914 37.1937 314.547 38.207C315.181 39.2204 315.497 40.373 315.497 41.665C315.497 42.957 315.181 44.1097 314.547 45.123C313.914 46.1364 313.027 46.9344 311.887 47.517C310.747 48.0744 309.455 48.353 308.011 48.353H301.931ZM320.513 48.353H318.043V28.973H320.513V48.353ZM308.011 46.073C309.481 46.073 310.671 45.6677 311.583 44.857C312.521 44.021 312.989 42.957 312.989 41.665C312.989 40.373 312.521 39.3217 311.583 38.511C310.671 37.675 309.481 37.257 308.011 37.257H304.401V46.073H308.011Z" fill="#212121"/>
<path d="M141.802 30.1214C142.99 45.7354 131.294 59.3556 115.68 60.543L34.621 66.7072C19.007 67.8945 5.38682 56.1994 4.19945 40.5854L2.04953 12.3138L111.381 3.99972C126.995 2.81235 140.615 14.5074 141.802 30.1214Z" fill="#0077FF" stroke="#0077FF" stroke-width="2"/>
<path d="M56.0413 54.992L53.389 55.1937L52.8847 48.5628L32.2343 50.1332L30.2029 23.4203L32.8553 23.2186L34.6994 47.4686L48.9084 46.3881L47.0643 22.1381L49.7166 21.9364L51.5607 46.1864L55.3498 45.8982L56.0413 54.992Z" fill="white"/>
<path d="M76.5646 37.8444L59.8928 39.1122C60.2038 41.1973 61.0777 42.8331 62.5144 44.0195C63.9745 45.1788 65.7403 45.6797 67.8116 45.5222C69.2767 45.4108 70.5546 45.0087 71.6452 44.316C72.7339 43.5981 73.506 42.7264 73.9616 41.7009L76.3017 41.904C75.5968 43.6598 74.4959 45.052 72.9989 46.0805C71.5 47.0837 69.7906 47.6583 67.8708 47.8043C65.951 47.9503 64.2133 47.6505 62.6576 46.905C61.102 46.1595 59.8371 45.0615 58.863 43.6112C57.9141 42.159 57.3657 40.4604 57.2178 38.5153C57.0699 36.5703 57.3425 34.8092 58.0356 33.2321C58.7539 31.6531 59.813 30.3784 61.2128 29.4082C62.6125 28.4379 64.2471 27.8817 66.1163 27.7395C67.9856 27.5974 69.6855 27.9 71.2159 28.6475C72.7463 29.3949 73.9733 30.4957 74.8969 31.9499C75.8457 33.4021 76.3941 35.1007 76.542 37.0458L76.5646 37.8444ZM66.2892 30.013C64.4452 30.1532 62.9359 30.8523 61.7612 32.1104C60.5847 33.3431 59.9295 34.9173 59.7957 36.833L73.7394 35.7726C73.3175 33.8992 72.4318 32.4422 71.0823 31.4015C69.7562 30.3337 68.1585 29.8708 66.2892 30.013Z" fill="white"/>
<path d="M81.9248 26.9185L94.4287 25.9676L95.8982 45.2918L93.4353 45.4791L92.1387 28.4284L84.3711 29.019L84.4897 40.0999C84.519 42.1556 84.1319 43.7476 83.3285 44.8757C82.5231 45.9787 81.3374 46.5897 79.7712 46.7088C79.3418 46.7414 78.8969 46.7371 78.4364 46.6959L78.0276 44.3261C78.3579 44.3264 78.7251 44.3112 79.1293 44.2804C80.2912 44.1921 81.0677 43.879 81.4587 43.3411C81.8731 42.7761 82.077 41.7824 82.0705 40.3601L81.9248 26.9185Z" fill="white"/>
<path d="M101.346 44.8775L99.8767 25.5533L102.34 25.366L102.795 31.3528L106.963 31.0358C108.403 30.9263 109.713 31.1188 110.894 31.6134C112.073 32.0827 113.017 32.7985 113.725 33.7609C114.433 34.7233 114.836 35.8486 114.934 37.1369C115.032 38.4252 114.804 39.5986 114.249 40.657C113.695 41.7154 112.871 42.5784 111.778 43.2458C110.684 43.888 109.417 44.2638 107.977 44.3733L101.346 44.8775ZM107.804 42.0999C109.269 41.9884 110.426 41.494 111.274 40.6165C112.145 39.7118 112.532 38.6154 112.434 37.3271C112.336 36.0388 111.789 35.026 110.792 34.2888C109.82 33.5243 108.601 33.1978 107.136 33.3092L102.968 33.6262L103.636 42.4168L107.804 42.0999Z" fill="white"/>
</svg>
