<svg width="272" height="202" viewBox="0 0 272 202" fill="none" xmlns="http://www.w3.org/2000/svg">
<path fill-rule="evenodd" clip-rule="evenodd" d="M126.133 24.5206L127.382 23.2418L139.568 35.145L151.755 23.2418L153.004 24.5206L139.568 37.6438L126.133 24.5206Z" fill="black"/>
<path fill-rule="evenodd" clip-rule="evenodd" d="M140.46 13.4539V36.3947H138.672V13.4539H140.46Z" fill="black"/>
<path fill-rule="evenodd" clip-rule="evenodd" d="M139.581 48.734C152.55 48.734 163.062 38.2212 163.062 25.2531C163.062 12.2849 152.55 1.77214 139.581 1.77214C126.613 1.77214 116.101 12.2849 116.101 25.2531C116.101 38.2212 126.613 48.734 139.581 48.734ZM139.581 50.5061C153.528 50.5061 164.834 39.1999 164.834 25.2531C164.834 11.3062 153.528 0 139.581 0C125.635 0 114.328 11.3062 114.328 25.2531C114.328 39.1999 125.635 50.5061 139.581 50.5061Z" fill="black"/>
<path d="M91.5323 83.3429C89.3074 83.3429 87.3217 82.9003 85.5753 82.0151C83.8288 81.106 82.4651 79.862 81.4843 78.283C80.5034 76.6801 80.0129 74.8738 80.0129 72.8642C80.0129 70.8546 80.5034 69.0603 81.4843 67.4813C82.4651 65.8784 83.8288 64.6344 85.5753 63.7492C87.3217 62.864 89.3074 62.4214 91.5323 62.4214V59.6941H94.0443V62.4214C96.2693 62.4214 98.255 62.864 100.001 63.7492C101.772 64.6344 103.147 65.8784 104.128 67.4813C105.109 69.0603 105.6 70.8546 105.6 72.8642C105.6 74.8978 105.109 76.704 104.128 78.283C103.147 79.862 101.772 81.106 100.001 82.0151C98.255 82.9003 96.2693 83.3429 94.0443 83.3429V86.0702H91.5323V83.3429ZM91.5323 64.6822C89.7859 64.6822 88.2428 65.0291 86.903 65.7229C85.5633 66.3928 84.5106 67.3498 83.7451 68.5938C83.0034 69.8139 82.6326 71.2374 82.6326 72.8642C82.6326 74.4432 83.0034 75.8667 83.7451 77.1347C84.5106 78.3787 85.5633 79.3476 86.903 80.0414C88.2428 80.7352 89.7859 81.0821 91.5323 81.0821V64.6822ZM94.0443 81.0821C95.7908 81.0821 97.3339 80.7352 98.6736 80.0414C100.037 79.3476 101.09 78.3787 101.832 77.1347C102.597 75.8667 102.98 74.4432 102.98 72.8642C102.98 71.2374 102.597 69.8139 101.832 68.5938C101.09 67.3498 100.037 66.3928 98.6736 65.7229C97.3339 65.0291 95.7908 64.6822 94.0443 64.6822V81.0821Z" fill="black"/>
<path d="M117.689 86.0702C115.87 86.0702 114.244 85.6635 112.808 84.8501C111.373 84.0367 110.248 82.9123 109.435 81.4769C108.645 80.0414 108.251 78.4026 108.251 76.5605C108.251 74.7183 108.645 73.0795 109.435 71.6441C110.248 70.2087 111.373 69.0842 112.808 68.2708C114.244 67.4574 115.87 67.0507 117.689 67.0507C119.507 67.0507 121.134 67.4574 122.569 68.2708C124.005 69.0842 125.117 70.2087 125.907 71.6441C126.72 73.0795 127.127 74.7183 127.127 76.5605C127.127 78.4026 126.72 80.0414 125.907 81.4769C125.117 82.9123 124.005 84.0367 122.569 84.8501C121.134 85.6635 119.507 86.0702 117.689 86.0702ZM117.689 83.9171C119.052 83.9171 120.261 83.6061 121.313 82.9841C122.39 82.362 123.215 81.5008 123.789 80.4003C124.387 79.2758 124.686 77.9959 124.686 76.5605C124.686 75.125 124.387 73.8571 123.789 72.7566C123.215 71.6321 122.39 70.7589 121.313 70.1369C120.261 69.5149 119.052 69.2039 117.689 69.2039C116.325 69.2039 115.105 69.5149 114.028 70.1369C112.976 70.7589 112.15 71.6321 111.552 72.7566C110.978 73.8571 110.691 75.125 110.691 76.5605C110.691 77.9959 110.978 79.2758 111.552 80.4003C112.15 81.5008 112.976 82.362 114.028 82.9841C115.105 83.6061 116.325 83.9171 117.689 83.9171Z" fill="black"/>
<path d="M130.871 93.068V67.4096H132.307L133.168 70.6034C133.934 69.5747 134.891 68.7254 136.039 68.0555C137.211 67.3856 138.611 67.0507 140.238 67.0507C141.96 67.0507 143.503 67.4574 144.867 68.2708C146.231 69.0842 147.295 70.2206 148.061 71.68C148.826 73.1154 149.209 74.7423 149.209 76.5605C149.209 78.3787 148.826 80.0175 148.061 81.4769C147.295 82.9123 146.231 84.0367 144.867 84.8501C143.503 85.6635 141.96 86.0702 140.238 86.0702C138.635 86.0702 137.247 85.7473 136.075 85.1013C134.927 84.4315 133.97 83.5941 133.204 82.5893V93.068H130.871ZM139.951 83.9171C141.29 83.9171 142.475 83.6061 143.503 82.9841C144.532 82.362 145.333 81.5008 145.908 80.4003C146.482 79.2758 146.769 77.9959 146.769 76.5605C146.769 75.125 146.482 73.8571 145.908 72.7566C145.333 71.6321 144.532 70.7589 143.503 70.1369C142.475 69.5149 141.29 69.2039 139.951 69.2039C138.635 69.2039 137.462 69.5149 136.434 70.1369C135.429 70.7589 134.639 71.6321 134.065 72.7566C133.491 73.8571 133.204 75.125 133.204 76.5605C133.204 77.9959 133.491 79.2758 134.065 80.4003C134.639 81.5008 135.429 82.362 136.434 82.9841C137.462 83.6061 138.635 83.9171 139.951 83.9171Z" fill="black"/>
<path d="M155.274 85.7114H152.941V67.4096H157.14L162.343 83.0199H162.774L168.193 67.4096H172.32V85.7114H169.987V69.7063H169.556L163.994 85.7114H161.051L155.704 69.7063H155.274V85.7114Z" fill="black"/>
<path d="M183.824 67.0507C185.93 67.0507 187.593 67.7804 188.813 69.2397C190.057 70.6991 190.679 72.7805 190.679 75.4839V85.7114H189.243L188.454 82.7687C187.808 83.7736 186.994 84.575 186.014 85.1731C185.057 85.7712 183.836 86.0702 182.353 86.0702C180.487 86.0702 178.968 85.5439 177.796 84.4913C176.623 83.4147 176.037 82.0391 176.037 80.3644C176.037 78.6179 176.719 77.2423 178.083 76.2375C179.446 75.2088 181.396 74.6944 183.932 74.6944H188.346C188.25 72.8283 187.796 71.4288 186.982 70.4958C186.193 69.5627 185.104 69.0962 183.717 69.0962C182.76 69.0962 181.887 69.3115 181.097 69.7422C180.308 70.1728 179.686 70.7948 179.231 71.6082L177.042 71.2494C177.568 69.9575 178.442 68.9407 179.662 68.1991C180.882 67.4335 182.269 67.0507 183.824 67.0507ZM182.676 84.0248C184.351 84.0248 185.714 83.4865 186.767 82.4099C187.82 81.3094 188.346 79.6706 188.346 77.4935V76.8476H183.932C180.248 76.8476 178.406 78.0198 178.406 80.3644C178.406 81.4888 178.788 82.386 179.554 83.0558C180.344 83.7018 181.384 84.0248 182.676 84.0248Z" fill="black"/>
<path fill-rule="evenodd" clip-rule="evenodd" d="M73.7359 97.6738L197.961 97.6738C210.929 97.6738 221.442 87.161 221.442 74.1929C221.442 61.2247 210.929 50.712 197.961 50.712L75.8581 50.7119C62.3039 50.7119 51.3161 61.6997 51.3161 75.2539C51.3161 87.636 61.3538 97.6738 73.7359 97.6738ZM197.961 99.4459C211.908 99.4459 223.214 88.1398 223.214 74.1929C223.214 60.246 211.908 48.9398 197.961 48.9398L75.8581 48.9398C61.3252 48.9398 49.5439 60.721 49.5439 75.2539C49.5439 88.6148 60.3751 99.4459 73.7359 99.4459L197.961 99.4459Z" fill="black"/>
<path d="M27.9467 138.943V131.407H28.1979C29.2505 131.407 30.04 130.952 30.5663 130.043C31.1166 129.134 31.4874 127.507 31.6788 125.163L32.5042 115.258H44.526V131.407H47.5045V138.943H45.1719V133.56H30.2792V138.943H27.9467ZM42.1934 131.407V117.411H34.6573L34.0114 125.306C33.8678 126.981 33.6406 128.309 33.3295 129.29C33.0425 130.247 32.6716 130.952 32.2171 131.407H42.1934Z" fill="black"/>
<path d="M54.3413 115.258H66.1837V133.56H63.8511V117.411H56.4945L55.8126 127.854C55.693 129.792 55.2145 131.263 54.3772 132.268C53.5399 133.249 52.3796 133.739 50.8963 133.739C50.4896 133.739 50.0709 133.704 49.6403 133.632L49.4249 131.371C49.736 131.395 50.0829 131.407 50.4656 131.407C51.5661 131.407 52.3197 131.168 52.7264 130.689C53.1571 130.187 53.4202 129.266 53.5159 127.926L54.3413 115.258Z" fill="black"/>
<path d="M84.4418 115.258V133.56H82.1092V126.67H77.5158L72.9942 133.56H70.2668L75.0755 126.383C73.7358 126 72.6712 125.33 71.8817 124.373C71.0922 123.392 70.6974 122.256 70.6974 120.964C70.6974 119.864 70.9845 118.883 71.5587 118.021C72.1329 117.16 72.9224 116.49 73.9272 116.012C74.9559 115.509 76.1162 115.258 77.4081 115.258H84.4418ZM82.1092 124.517V117.411H77.4081C76.1162 117.411 75.0636 117.746 74.2502 118.416C73.4607 119.062 73.0659 119.911 73.0659 120.964C73.0659 122.017 73.4607 122.878 74.2502 123.548C75.0636 124.194 76.1162 124.517 77.4081 124.517H82.1092Z" fill="black"/>
<path fill-rule="evenodd" clip-rule="evenodd" d="M112.908 99.4466H2.59246V146.408H112.908V99.4466ZM0.820312 97.6744V148.181H114.681V97.6744H0.820312Z" fill="black"/>
<path fill-rule="evenodd" clip-rule="evenodd" d="M138.434 146.408L246.267 146.408C259.235 146.408 269.748 135.895 269.748 122.927C269.748 109.959 259.235 99.4461 246.267 99.4461L140.556 99.4461C127.002 99.4461 116.014 110.434 116.014 123.988C116.014 136.37 126.052 146.408 138.434 146.408ZM246.267 148.18C260.214 148.18 271.52 136.874 271.52 122.927C271.52 108.98 260.214 97.6739 246.267 97.6739L140.556 97.6739C126.023 97.6739 114.242 109.455 114.242 123.988C114.242 137.349 125.073 148.18 138.434 148.18L246.267 148.18Z" fill="black"/>
<path d="M156.795 123.835C157.752 124.241 158.506 124.839 159.056 125.629C159.606 126.418 159.881 127.327 159.881 128.356C159.881 129.887 159.295 131.143 158.123 132.124C156.951 133.081 155.443 133.56 153.601 133.56H145.635V115.258H153.386C155.084 115.258 156.484 115.712 157.585 116.621C158.685 117.507 159.235 118.655 159.235 120.066C159.235 120.88 159.02 121.61 158.589 122.256C158.183 122.901 157.585 123.428 156.795 123.835ZM147.967 117.411V122.901H153.386C154.415 122.901 155.252 122.65 155.898 122.148C156.544 121.622 156.867 120.952 156.867 120.138C156.867 119.325 156.544 118.667 155.898 118.165C155.252 117.662 154.415 117.411 153.386 117.411H147.967ZM153.601 131.406C154.75 131.406 155.683 131.107 156.4 130.509C157.142 129.911 157.513 129.146 157.513 128.213C157.513 127.28 157.142 126.526 156.4 125.952C155.683 125.354 154.75 125.055 153.601 125.055H147.967V131.406H153.601Z" fill="black"/>
<path d="M170.131 114.899C172.236 114.899 173.899 115.629 175.119 117.088C176.363 118.547 176.985 120.629 176.985 123.332V133.56H175.55L174.76 130.617C174.114 131.622 173.301 132.423 172.32 133.021C171.363 133.619 170.143 133.918 168.66 133.918C166.794 133.918 165.275 133.392 164.102 132.339C162.93 131.263 162.344 129.887 162.344 128.213C162.344 126.466 163.026 125.091 164.389 124.086C165.753 123.057 167.703 122.543 170.239 122.543H174.653C174.557 120.677 174.103 119.277 173.289 118.344C172.5 117.411 171.411 116.944 170.023 116.944C169.067 116.944 168.193 117.16 167.404 117.59C166.614 118.021 165.992 118.643 165.538 119.456L163.349 119.098C163.875 117.806 164.748 116.789 165.968 116.047C167.189 115.282 168.576 114.899 170.131 114.899ZM168.983 131.873C170.657 131.873 172.021 131.335 173.074 130.258C174.126 129.158 174.653 127.519 174.653 125.342V124.696H170.239C166.555 124.696 164.712 125.868 164.712 128.213C164.712 129.337 165.095 130.234 165.861 130.904C166.65 131.55 167.691 131.873 168.983 131.873Z" fill="black"/>
<path d="M204.244 133.56H181.241V115.258H183.574V131.406H191.577V115.258H193.909V131.406H201.912V115.258H204.244V133.56Z" fill="black"/>
<path d="M212.576 133.56H208.7V115.258H211.032V131.263H211.463L220.076 115.258H223.951V133.56H221.619V117.554H221.188L212.576 133.56Z" fill="black"/>
<path d="M228.88 133.56H226.188L232.54 124.157L226.978 115.258H229.705L234.083 122.435H234.55L239.107 115.258H241.763L236.165 123.942L242.373 133.56H239.61L234.622 125.593H234.155L228.88 133.56Z" fill="black"/>
<path d="M26.0743 176.793C25.235 162.871 35.8403 150.905 49.7618 150.066L221.021 139.741C234.513 138.927 246.109 149.205 246.923 162.697L248.489 188.682L52.8013 200.48C38.8797 201.32 26.9136 190.714 26.0743 176.793Z" fill="#0077FF"/>
<path d="M69.9912 184.797L66.1942 185.026L58.4073 177.514L57.2968 177.581L57.7763 185.533L54.9106 185.706L53.8027 167.33L56.6684 167.157L57.1327 174.859L58.279 174.79L64.6923 166.674L68.1669 166.464L60.6808 175.867L69.9912 184.797Z" fill="white"/>
<path d="M80.4926 184.523C78.6538 184.634 76.9816 184.328 75.4759 183.604C73.9703 182.879 72.7676 181.813 71.8678 180.406C70.968 178.998 70.4627 177.375 70.3518 175.536C70.241 173.697 70.5483 172.037 71.2739 170.555C71.998 169.049 73.0639 167.847 74.4717 166.947C75.8795 166.047 77.5028 165.542 79.3416 165.431C81.1804 165.32 82.8526 165.627 84.3583 166.351C85.8878 167.073 87.1025 168.139 88.0022 169.546C88.9006 170.93 89.4052 172.542 89.516 174.38C89.6269 176.219 89.3203 177.892 88.5961 179.397C87.872 180.903 86.8061 182.106 85.3983 183.005C83.9906 183.905 82.3553 184.411 80.4926 184.523ZM80.3328 181.873C82.291 181.755 83.8409 181.026 84.9826 179.687C86.1227 178.324 86.6309 176.616 86.5071 174.562C86.4264 173.225 86.0798 172.047 85.4672 171.029C84.8546 170.012 84.0296 169.247 82.992 168.734C81.953 168.197 80.7888 167.968 79.4992 168.046C78.2097 168.124 77.0814 168.491 76.1144 169.149C75.1699 169.781 74.4546 170.639 73.9687 171.723C73.4828 172.807 73.2802 174.017 73.3608 175.354C73.4429 176.716 73.7902 177.905 74.4028 178.923C75.0154 179.94 75.8285 180.706 76.8422 181.22C77.8797 181.733 79.0433 181.95 80.3328 181.873Z" fill="white"/>
<path d="M105.775 171.998L105.306 164.225L108.172 164.052L109.279 182.428L106.414 182.601L105.932 174.613L96.4038 175.188L96.8854 183.176L94.0197 183.348L92.9119 164.972L95.7775 164.8L96.2462 172.573L105.775 171.998Z" fill="white"/>
<path d="M121.76 181.676L118.894 181.849L117.944 166.088L111.568 166.472L111.41 163.857L127.028 162.915L127.186 165.53L120.809 165.915L121.76 181.676Z" fill="white"/>
<path d="M136.465 161.987C138.662 161.855 140.438 162.49 141.793 163.895C143.17 165.274 143.94 167.312 144.103 170.011L144.723 180.292L142.788 180.408L141.825 177.554C140.5 179.815 138.535 181.024 135.932 181.181C134.07 181.293 132.509 180.848 131.25 179.845C130.015 178.841 129.347 177.492 129.244 175.796C129.139 174.053 129.736 172.627 131.036 171.518C132.357 170.384 134.308 169.739 136.887 169.583L141.185 169.324C140.989 167.658 140.483 166.418 139.667 165.605C138.85 164.767 137.796 164.387 136.507 164.465C135.575 164.521 134.74 164.787 134.002 165.263C133.288 165.738 132.751 166.369 132.391 167.158L129.678 166.89C130.12 165.473 130.95 164.333 132.168 163.468C133.409 162.579 134.841 162.085 136.465 161.987ZM136.321 178.677C137.921 178.581 139.191 177.977 140.13 176.865C141.07 175.754 141.481 174.22 141.363 172.261L141.334 171.796L137.072 172.053C133.657 172.259 132.014 173.424 132.142 175.55C132.204 176.576 132.611 177.379 133.365 177.956C134.118 178.51 135.103 178.75 136.321 178.677Z" fill="white"/>
<path d="M164.651 179.09L160.854 179.319L153.067 171.807L151.956 171.874L152.436 179.827L149.57 179.999L148.462 161.623L151.328 161.45L151.792 169.152L152.938 169.083L159.352 160.967L162.826 160.757L155.34 170.16L164.651 179.09Z" fill="white"/>
<path d="M174.791 178.479L171.926 178.651L170.975 162.89L164.599 163.275L164.442 160.66L180.06 159.718L180.217 162.333L173.841 162.718L174.791 178.479Z" fill="white"/>
<path d="M192.188 177.789C190.349 177.9 188.677 177.594 187.171 176.87C185.666 176.145 184.463 175.079 183.563 173.672C182.663 172.264 182.158 170.641 182.047 168.802C181.936 166.963 182.244 165.303 182.969 163.821C183.693 162.315 184.759 161.113 186.167 160.213C187.575 159.313 189.198 158.808 191.037 158.697C192.876 158.586 194.548 158.893 196.054 159.617C197.583 160.339 198.798 161.405 199.698 162.812C200.596 164.196 201.101 165.808 201.211 167.646C201.322 169.485 201.016 171.157 200.292 172.663C199.567 174.169 198.501 175.372 197.094 176.271C195.686 177.171 194.051 177.677 192.188 177.789ZM192.028 175.139C193.986 175.021 195.536 174.292 196.678 172.953C197.818 171.59 198.326 169.882 198.202 167.828C198.122 166.491 197.775 165.313 197.163 164.295C196.55 163.278 195.725 162.513 194.687 162C193.648 161.463 192.484 161.234 191.195 161.312C189.905 161.39 188.777 161.757 187.81 162.415C186.865 163.047 186.15 163.905 185.664 164.989C185.178 166.073 184.976 167.283 185.056 168.62C185.138 169.982 185.486 171.171 186.098 172.189C186.711 173.206 187.524 173.972 188.538 174.486C189.575 174.999 190.739 175.216 192.028 175.139Z" fill="white"/>
<path d="M216.772 166.205C217.748 166.506 218.548 167.045 219.17 167.822C219.791 168.576 220.133 169.478 220.196 170.528C220.256 171.531 220.036 172.443 219.534 173.265C219.032 174.086 218.306 174.753 217.354 175.266C216.401 175.754 215.303 176.036 214.061 176.111L205.715 176.614L204.607 158.238L212.703 157.75C214.47 157.644 215.943 158.022 217.121 158.886C218.322 159.724 218.965 160.848 219.05 162.257C219.102 163.117 218.921 163.882 218.506 164.555C218.115 165.225 217.537 165.775 216.772 166.205ZM207.624 160.573L207.929 165.624L213.158 165.308C214.09 165.252 214.828 164.98 215.374 164.492C215.942 163.978 216.204 163.351 216.16 162.611C216.115 161.871 215.78 161.28 215.154 160.838C214.552 160.395 213.785 160.201 212.854 160.258L207.624 160.573ZM213.908 173.568C214.959 173.505 215.791 173.191 216.404 172.626C217.039 172.037 217.331 171.312 217.279 170.453C217.228 169.593 216.851 168.92 216.151 168.435C215.475 167.949 214.611 167.737 213.56 167.801L208.08 168.131L208.427 173.898L213.908 173.568Z" fill="white"/>
</svg>
