<svg width="85" height="86" viewBox="0 0 85 86" fill="none" xmlns="http://www.w3.org/2000/svg">
<path fill-rule="evenodd" clip-rule="evenodd" d="M19.9518 41.573L22.0481 39.4269L42.5 59.4031L62.9518 39.4269L65.0481 41.573L42.5 63.5967L19.9518 41.573Z" fill="black"/>
<path fill-rule="evenodd" clip-rule="evenodd" d="M43.9999 23V61.5H40.9999V23H43.9999Z" fill="black"/>
<path fill-rule="evenodd" clip-rule="evenodd" d="M42.5211 82.2083C64.2847 82.2083 81.9275 64.5654 81.9275 42.8019C81.9275 21.0383 64.2847 3.39546 42.5211 3.39546C20.7575 3.39546 3.11469 21.0383 3.11469 42.8019C3.11469 64.5654 20.7575 82.2083 42.5211 82.2083ZM42.5211 85.1824C65.9272 85.1824 84.9016 66.208 84.9016 42.8019C84.9016 19.3958 65.9272 0.421387 42.5211 0.421387C19.115 0.421387 0.140625 19.3958 0.140625 42.8019C0.140625 66.208 19.115 85.1824 42.5211 85.1824Z" fill="black"/>
</svg>
