<svg width="498" height="304" viewBox="0 0 498 304" fill="none" xmlns="http://www.w3.org/2000/svg">
<path fill-rule="evenodd" clip-rule="evenodd" d="M31.1753 269.66C38.6876 277.172 48.188 281.48 57.9903 282.58L57.6556 285.562C47.2015 284.388 37.064 279.791 29.054 271.781C21.0441 263.772 16.4454 253.632 15.2715 243.177L18.2528 242.843C19.3535 252.645 23.6629 262.148 31.1753 269.66Z" fill="black"/>
<path fill-rule="evenodd" clip-rule="evenodd" d="M19.6143 286.75C25.6398 291.746 32.903 294.254 40.1688 294.389L40.1128 297.389C32.1914 297.241 24.2669 294.504 17.6995 289.059C11.1322 283.614 6.973 276.332 5.36036 268.575L8.29756 267.964C9.77668 275.079 13.5886 281.754 19.6143 286.75Z" fill="black"/>
<path fill-rule="evenodd" clip-rule="evenodd" d="M60.9518 41.573L63.0481 39.4269L83.5 59.4031L103.952 39.4269L106.048 41.573L83.5 63.5967L60.9518 41.573Z" fill="black"/>
<path fill-rule="evenodd" clip-rule="evenodd" d="M84.9999 23V61.5H81.9999V23H84.9999Z" fill="black"/>
<path fill-rule="evenodd" clip-rule="evenodd" d="M83.5211 82.2083C105.285 82.2083 122.928 64.5654 122.928 42.8019C122.928 21.0383 105.285 3.39546 83.5211 3.39546C61.7575 3.39546 44.1147 21.0383 44.1147 42.8019C44.1147 64.5654 61.7575 82.2083 83.5211 82.2083ZM83.5211 85.1823C106.927 85.1823 125.902 66.208 125.902 42.8019C125.902 19.3958 106.927 0.421387 83.5211 0.421387C60.115 0.421387 41.1406 19.3958 41.1406 42.8019C41.1406 66.208 60.115 85.1823 83.5211 85.1823Z" fill="black"/>
<path d="M193.565 58.9021C189.831 58.9021 186.498 58.1593 183.568 56.6738C180.637 55.1481 178.348 53.0603 176.702 50.4104C175.056 47.7203 174.233 44.689 174.233 41.3164C174.233 37.9438 175.056 34.9326 176.702 32.2827C178.348 29.5926 180.637 27.5048 183.568 26.0193C186.498 24.5337 189.831 23.791 193.565 23.791V19.2139H197.781V23.791C201.515 23.791 204.847 24.5337 207.778 26.0193C210.749 27.5048 213.058 29.5926 214.704 32.2827C216.35 34.9326 217.173 37.9438 217.173 41.3164C217.173 44.7291 216.35 47.7605 214.704 50.4104C213.058 53.0603 210.749 55.1481 207.778 56.6738C204.847 58.1593 201.515 58.9021 197.781 58.9021V63.4792H193.565V58.9021ZM193.565 27.5851C190.634 27.5851 188.044 28.1673 185.796 29.3316C183.547 30.4558 181.781 32.0618 180.496 34.1496C179.251 36.1973 178.629 38.5862 178.629 41.3164C178.629 43.9663 179.251 46.3552 180.496 48.4832C181.781 50.571 183.547 52.197 185.796 53.3614C188.044 54.5257 190.634 55.1079 193.565 55.1079V27.5851ZM197.781 55.1079C200.712 55.1079 203.301 54.5257 205.55 53.3614C207.838 52.197 209.605 50.571 210.849 48.4832C212.134 46.3552 212.777 43.9663 212.777 41.3164C212.777 38.5862 212.134 36.1973 210.849 34.1496C209.605 32.0618 207.838 30.4558 205.55 29.3316C203.301 28.1673 200.712 27.5851 197.781 27.5851V55.1079Z" fill="black"/>
<path d="M237.461 63.4792C234.41 63.4792 231.68 62.7966 229.271 61.4315C226.862 60.0664 224.975 58.1794 223.61 55.7704C222.285 53.3614 221.622 50.6111 221.622 47.5196C221.622 44.428 222.285 41.6778 223.61 39.2688C224.975 36.8598 226.862 34.9727 229.271 33.6076C231.68 32.2425 234.41 31.56 237.461 31.56C240.513 31.56 243.243 32.2425 245.652 33.6076C248.061 34.9727 249.928 36.8598 251.253 39.2688C252.618 41.6778 253.3 44.428 253.3 47.5196C253.3 50.6111 252.618 53.3614 251.253 55.7704C249.928 58.1794 248.061 60.0664 245.652 61.4315C243.243 62.7966 240.513 63.4792 237.461 63.4792ZM237.461 59.8657C239.75 59.8657 241.777 59.3437 243.544 58.2998C245.351 57.2559 246.736 55.8105 247.7 53.9636C248.703 52.0766 249.205 49.9286 249.205 47.5196C249.205 45.1106 248.703 42.9826 247.7 41.1357C246.736 39.2487 245.351 37.7832 243.544 36.7393C241.777 35.6954 239.75 35.1735 237.461 35.1735C235.173 35.1735 233.125 35.6954 231.318 36.7393C229.552 37.7832 228.167 39.2487 227.163 41.1357C226.199 42.9826 225.717 45.1106 225.717 47.5196C225.717 49.9286 226.199 52.0766 227.163 53.9636C228.167 55.8105 229.552 57.2559 231.318 58.2998C233.125 59.3437 235.173 59.8657 237.461 59.8657Z" fill="black"/>
<path d="M259.585 75.223V32.1622H261.994L263.439 37.5222C264.724 35.7958 266.33 34.3705 268.257 33.2463C270.225 32.1221 272.574 31.56 275.304 31.56C278.195 31.56 280.784 32.2425 283.073 33.6076C285.361 34.9727 287.148 36.8798 288.433 39.329C289.718 41.738 290.36 44.4682 290.36 47.5196C290.36 50.571 289.718 53.3212 288.433 55.7704C287.148 58.1794 285.361 60.0664 283.073 61.4315C280.784 62.7966 278.195 63.4792 275.304 63.4792C272.614 63.4792 270.285 62.9371 268.318 61.8531C266.39 60.7289 264.784 59.3237 263.5 57.6374V75.223H259.585ZM274.822 59.8657C277.07 59.8657 279.058 59.3437 280.784 58.2998C282.511 57.2559 283.856 55.8105 284.819 53.9636C285.783 52.0766 286.265 49.9286 286.265 47.5196C286.265 45.1106 285.783 42.9826 284.819 41.1357C283.856 39.2487 282.511 37.7832 280.784 36.7393C279.058 35.6954 277.07 35.1735 274.822 35.1735C272.614 35.1735 270.646 35.6954 268.92 36.7393C267.234 37.7832 265.909 39.2487 264.945 41.1357C263.981 42.9826 263.5 45.1106 263.5 47.5196C263.5 49.9286 263.981 52.0766 264.945 53.9636C265.909 55.8105 267.234 57.2559 268.92 58.2998C270.646 59.3437 272.614 59.8657 274.822 59.8657Z" fill="black"/>
<path d="M300.538 62.8769H296.623V32.1622H303.67L312.402 58.3601H313.125L322.219 32.1622H329.145V62.8769H325.23V36.0166H324.507L315.173 62.8769H310.234L301.261 36.0166H300.538V62.8769Z" fill="black"/>
<path d="M348.452 31.56C351.986 31.56 354.776 32.7845 356.824 35.2337C358.912 37.6828 359.955 41.1759 359.955 45.7128V62.8769H357.546L356.221 57.9385C355.137 59.6248 353.772 60.9698 352.126 61.9735C350.52 62.9773 348.473 63.4792 345.983 63.4792C342.852 63.4792 340.302 62.5959 338.335 60.8293C336.367 59.0225 335.384 56.7139 335.384 53.9034C335.384 50.9725 336.528 48.6638 338.817 46.9775C341.105 45.2511 344.377 44.3879 348.633 44.3879H356.041C355.88 41.2562 355.117 38.9074 353.752 37.3416C352.427 35.7757 350.6 34.9928 348.272 34.9928C346.666 34.9928 345.2 35.3541 343.875 36.0768C342.55 36.7995 341.507 37.8434 340.744 39.2085L337.07 38.6063C337.953 36.4382 339.419 34.7318 341.466 33.4872C343.514 32.2024 345.843 31.56 348.452 31.56ZM346.525 60.0463C349.336 60.0463 351.624 59.143 353.391 57.3362C355.158 55.4893 356.041 52.7391 356.041 49.0854V48.0014H348.633C342.45 48.0014 339.359 49.9687 339.359 53.9034C339.359 55.7905 340.001 57.2961 341.286 58.4203C342.611 59.5043 344.357 60.0463 346.525 60.0463Z" fill="black"/>
<path fill-rule="evenodd" clip-rule="evenodd" d="M163.702 82.9522L372.18 82.9522C393.944 82.9522 411.587 65.3094 411.587 43.5458C411.587 21.7822 393.944 4.13941 372.18 4.13941L167.263 4.13938C144.516 4.13938 126.076 22.5795 126.076 45.3265C126.076 66.1066 142.921 82.9522 163.702 82.9522ZM372.18 85.9263C395.586 85.9263 414.561 66.9519 414.561 43.5458C414.561 20.1397 395.586 1.16533 372.18 1.16533L167.263 1.1653C142.873 1.1653 123.102 20.9369 123.102 45.3265C123.102 67.7491 141.279 85.9262 163.702 85.9262L372.18 85.9263Z" fill="black"/>
<path d="M89.069 152.21V139.563H89.4906C91.2572 139.563 92.5822 138.8 93.4654 137.275C94.3889 135.749 95.0112 133.019 95.3324 129.084L96.7176 112.462H116.893V139.563H121.892V152.21H117.977V143.177H92.9836V152.21H89.069ZM112.978 139.563V116.076H100.331L99.247 129.325C99.0061 132.136 98.6247 134.364 98.1028 136.01C97.621 137.616 96.9986 138.8 96.2358 139.563H112.978Z" fill="black"/>
<path d="M133.365 112.462H153.24V143.177H149.325V116.076H136.979L135.835 133.601C135.634 136.853 134.831 139.322 133.426 141.009C132.02 142.655 130.073 143.478 127.584 143.478C126.901 143.478 126.199 143.418 125.476 143.297L125.115 139.503C125.637 139.543 126.219 139.563 126.861 139.563C128.708 139.563 129.973 139.162 130.655 138.359C131.378 137.516 131.82 135.97 131.98 133.721L133.365 112.462Z" fill="black"/>
<path d="M183.881 112.462V143.177H179.966V131.614H172.257L164.669 143.177H160.092L168.162 131.132C165.914 130.489 164.127 129.365 162.802 127.759C161.477 126.113 160.815 124.206 160.815 122.038C160.815 120.191 161.297 118.545 162.26 117.099C163.224 115.654 164.549 114.53 166.235 113.727C167.961 112.884 169.909 112.462 172.077 112.462H183.881ZM179.966 128V116.076H172.077C169.909 116.076 168.142 116.638 166.777 117.762C165.452 118.846 164.79 120.271 164.79 122.038C164.79 123.804 165.452 125.25 166.777 126.374C168.142 127.458 169.909 128 172.077 128H179.966Z" fill="black"/>
<path fill-rule="evenodd" clip-rule="evenodd" d="M231.65 85.9262H46.5143V164.739H231.65V85.9262ZM43.5402 82.9521V167.713H234.624V82.9521H43.5402Z" fill="black"/>
<path fill-rule="evenodd" clip-rule="evenodd" d="M274.478 164.739L455.446 164.739C477.21 164.739 494.853 147.096 494.853 125.333C494.853 103.569 477.21 85.9263 455.446 85.9263L278.039 85.9262C255.292 85.9262 236.852 104.366 236.852 127.113C236.852 147.893 253.698 164.739 274.478 164.739ZM455.446 167.713C478.852 167.713 497.827 148.739 497.827 125.333C497.827 101.927 478.852 82.9522 455.446 82.9522L278.039 82.9522C253.65 82.9522 233.878 102.724 233.878 127.113C233.878 149.536 252.055 167.713 274.478 167.713L455.446 167.713Z" fill="black"/>
<path d="M305.289 126.856C306.895 127.538 308.159 128.542 309.083 129.867C310.006 131.192 310.468 132.718 310.468 134.444C310.468 137.014 309.484 139.121 307.517 140.768C305.55 142.374 303.02 143.177 299.929 143.177H286.559V112.462H299.567C302.418 112.462 304.767 113.225 306.614 114.75C308.461 116.236 309.384 118.163 309.384 120.532C309.384 121.897 309.023 123.122 308.3 124.206C307.617 125.29 306.614 126.173 305.289 126.856ZM290.473 116.075V125.29H299.567C301.294 125.29 302.699 124.868 303.783 124.025C304.867 123.142 305.409 122.018 305.409 120.652C305.409 119.287 304.867 118.183 303.783 117.34C302.699 116.497 301.294 116.075 299.567 116.075H290.473ZM299.929 139.563C301.856 139.563 303.422 139.061 304.626 138.057C305.871 137.054 306.493 135.769 306.493 134.203C306.493 132.637 305.871 131.372 304.626 130.409C303.422 129.405 301.856 128.903 299.929 128.903H290.473V139.563H299.929Z" fill="black"/>
<path d="M327.67 111.86C331.203 111.86 333.993 113.084 336.041 115.533C338.129 117.982 339.173 121.476 339.173 126.012V143.177H336.764L335.439 138.238C334.355 139.924 332.99 141.269 331.344 142.273C329.738 143.277 327.69 143.779 325.201 143.779C322.069 143.779 319.519 142.896 317.552 141.129C315.585 139.322 314.601 137.014 314.601 134.203C314.601 131.272 315.745 128.963 318.034 127.277C320.322 125.551 323.595 124.688 327.85 124.688H335.258C335.098 121.556 334.335 119.207 332.97 117.641C331.645 116.075 329.818 115.292 327.489 115.292C325.883 115.292 324.418 115.654 323.093 116.376C321.768 117.099 320.724 118.143 319.961 119.508L316.287 118.906C317.171 116.738 318.636 115.031 320.684 113.787C322.731 112.502 325.06 111.86 327.67 111.86ZM325.743 140.346C328.553 140.346 330.842 139.443 332.608 137.636C334.375 135.789 335.258 133.039 335.258 129.385V128.301H327.85C321.667 128.301 318.576 130.268 318.576 134.203C318.576 136.09 319.218 137.596 320.503 138.72C321.828 139.804 323.575 140.346 325.743 140.346Z" fill="black"/>
<path d="M384.92 143.177H346.316V112.462H350.23V139.563H363.66V112.462H367.575V139.563H381.005V112.462H384.92V143.177Z" fill="black"/>
<path d="M398.901 143.177H392.397V112.462H396.312V139.322H397.034L411.488 112.462H417.993V143.177H414.078V116.316H413.355L398.901 143.177Z" fill="black"/>
<path d="M426.264 143.177H421.747L432.407 127.398L423.072 112.462H427.649L434.996 124.507H435.779L443.428 112.462H447.884L438.489 127.036L448.908 143.177H444.271L435.9 129.807H435.117L426.264 143.177Z" fill="black"/>
<path d="M42.3746 216.136C40.966 192.772 58.7642 172.69 82.1278 171.282L348.65 155.213C382.83 153.153 412.208 179.19 414.269 213.37L415.639 236.089L87.2287 255.889C63.8651 257.298 43.7832 239.5 42.3746 216.136Z" fill="#0077FF"/>
<path d="M116.076 229.569L109.704 229.953L96.6358 217.347L94.7723 217.459L95.5769 230.805L90.7676 231.095L88.9083 200.256L93.7176 199.966L94.4968 212.891L96.4205 212.775L107.184 199.154L113.015 198.802L100.451 214.583L116.076 229.569Z" fill="white"/>
<path d="M133.7 229.11C130.614 229.296 127.808 228.781 125.281 227.566C122.754 226.351 120.736 224.562 119.226 222.2C117.716 219.837 116.868 217.113 116.682 214.027C116.496 210.941 117.011 208.155 118.229 205.668C119.444 203.141 121.233 201.122 123.596 199.612C125.958 198.102 128.682 197.254 131.768 197.068C134.854 196.882 137.661 197.397 140.188 198.612C142.755 199.825 144.793 201.613 146.303 203.975C147.811 206.298 148.657 209.002 148.844 212.088C149.03 215.174 148.515 217.98 147.3 220.507C146.084 223.034 144.296 225.052 141.933 226.562C139.57 228.072 136.826 228.922 133.7 229.11ZM133.432 224.661C136.718 224.463 139.319 223.241 141.235 220.993C143.149 218.706 144.002 215.839 143.794 212.392C143.658 210.148 143.077 208.172 142.049 206.464C141.021 204.756 139.636 203.472 137.895 202.612C136.151 201.711 134.197 201.326 132.033 201.457C129.869 201.587 127.975 202.204 126.352 203.308C124.767 204.369 123.567 205.808 122.752 207.627C121.936 209.446 121.596 211.478 121.731 213.722C121.869 216.007 122.452 218.003 123.48 219.711C124.508 221.419 125.873 222.704 127.574 223.567C129.315 224.427 131.268 224.792 133.432 224.661Z" fill="white"/>
<path d="M176.129 208.09L175.343 195.045L180.152 194.755L182.011 225.594L177.202 225.884L176.394 212.478L160.403 213.442L161.211 226.848L156.402 227.138L154.542 196.299L159.352 196.009L160.138 209.054L176.129 208.09Z" fill="white"/>
<path d="M202.956 224.331L198.147 224.621L196.552 198.17L185.851 198.815L185.587 194.427L211.797 192.847L212.062 197.235L201.361 197.88L202.956 224.331Z" fill="white"/>
<path d="M227.635 191.289C231.322 191.066 234.302 192.134 236.576 194.49C238.888 196.805 240.18 200.226 240.453 204.755L241.493 222.008L238.247 222.204L236.631 217.414C234.406 221.208 231.109 223.237 226.741 223.501C223.615 223.689 220.996 222.942 218.883 221.259C216.811 219.574 215.689 217.309 215.517 214.464C215.341 211.538 216.343 209.145 218.523 207.284C220.741 205.38 224.015 204.298 228.343 204.037L235.557 203.602C235.227 200.806 234.378 198.726 233.008 197.36C231.637 195.955 229.869 195.317 227.704 195.447C226.141 195.542 224.74 195.988 223.501 196.787C222.303 197.583 221.401 198.643 220.797 199.967L216.245 199.517C216.987 197.139 218.379 195.225 220.424 193.775C222.506 192.282 224.909 191.453 227.635 191.289ZM227.393 219.298C230.078 219.136 232.209 218.123 233.786 216.258C235.363 214.393 236.052 211.818 235.854 208.531L235.807 207.75L228.653 208.181C222.922 208.527 220.164 210.483 220.379 214.05C220.483 215.773 221.168 217.119 222.433 218.089C223.695 219.018 225.349 219.422 227.393 219.298Z" fill="white"/>
<path d="M274.937 219.992L268.565 220.376L255.496 207.769L253.633 207.882L254.437 221.228L249.628 221.517L247.769 190.678L252.578 190.388L253.357 203.313L255.281 203.197L266.044 189.576L271.875 189.225L259.312 205.005L274.937 219.992Z" fill="white"/>
<path d="M291.955 218.966L287.146 219.256L285.551 192.805L274.851 193.45L274.586 189.061L300.797 187.481L301.061 191.87L290.361 192.515L291.955 218.966Z" fill="white"/>
<path d="M321.151 217.809C318.065 217.995 315.259 217.48 312.732 216.265C310.205 215.05 308.186 213.261 306.676 210.898C305.166 208.536 304.318 205.812 304.132 202.726C303.946 199.64 304.462 196.853 305.68 194.366C306.895 191.84 308.684 189.821 311.046 188.311C313.409 186.801 316.133 185.953 319.219 185.767C322.305 185.581 325.112 186.096 327.638 187.311C330.205 188.524 332.244 190.311 333.754 192.674C335.261 194.996 336.108 197.701 336.294 200.787C336.48 203.872 335.966 206.679 334.75 209.206C333.535 211.733 331.746 213.751 329.384 215.261C327.021 216.771 324.277 217.62 321.151 217.809ZM320.883 213.36C324.169 213.162 326.77 211.939 328.686 209.692C330.599 207.405 331.452 204.538 331.245 201.091C331.109 198.847 330.528 196.871 329.499 195.163C328.471 193.455 327.087 192.171 325.345 191.31C323.602 190.41 321.648 190.025 319.484 190.156C317.32 190.286 315.426 190.903 313.803 192.006C312.218 193.067 311.018 194.507 310.202 196.326C309.387 198.145 309.047 200.177 309.182 202.421C309.32 204.706 309.903 206.702 310.931 208.409C311.959 210.117 313.323 211.403 315.025 212.265C316.766 213.126 318.719 213.491 320.883 213.36Z" fill="white"/>
<path d="M362.408 198.367C364.047 198.872 365.389 199.777 366.433 201.081C367.475 202.346 368.048 203.86 368.155 205.623C368.256 207.306 367.886 208.837 367.044 210.215C366.202 211.593 364.982 212.713 363.385 213.573C361.785 214.394 359.944 214.867 357.859 214.992L343.853 215.837L341.993 184.997L355.579 184.178C358.545 183.999 361.017 184.635 362.995 186.084C365.01 187.491 366.089 189.377 366.232 191.742C366.319 193.184 366.014 194.47 365.318 195.598C364.662 196.723 363.692 197.647 362.408 198.367ZM347.056 188.916L347.567 197.392L356.344 196.863C357.907 196.768 359.147 196.312 360.063 195.492C361.016 194.63 361.456 193.578 361.381 192.336C361.306 191.093 360.743 190.102 359.693 189.36C358.683 188.617 357.396 188.292 355.833 188.386L347.056 188.916ZM357.602 210.724C359.366 210.618 360.762 210.091 361.791 209.144C362.857 208.155 363.347 206.939 363.26 205.496C363.173 204.053 362.542 202.925 361.367 202.111C360.231 201.294 358.782 200.939 357.019 201.045L347.821 201.6L348.404 211.279L357.602 210.724Z" fill="white"/>
</svg>
