<svg width="239" height="62" viewBox="0 0 239 62" fill="none" xmlns="http://www.w3.org/2000/svg">
<path fill-rule="evenodd" clip-rule="evenodd" d="M28.68 62C15.1601 62 8.40019 62 4.20009 57.6417C-3.70346e-07 53.2835 -6.6838e-07 46.2689 -1.26445e-06 32.2398L-1.36982e-06 29.7598C-1.96588e-06 15.7308 -2.26391e-06 8.71626 4.20009 4.35801C8.40019 1.10663e-05 15.1601 1.07623e-05 28.68 1.01544e-05L28.68 1.01543e-05L31.07 1.00469e-05L31.07 1.00469e-05C44.5899 9.43888e-06 51.3498 9.13488e-06 55.5499 4.35801C59.75 8.71625 59.75 15.7308 59.75 29.7598L59.75 32.2398C59.75 46.2689 59.75 53.2835 55.5499 57.6417C51.3498 62 44.5899 62 31.07 62L28.68 62Z" fill="white"/>
<path d="M34.551 38.2085C32.9412 37.7912 31.8124 36.2969 31.8124 34.5831L31.8124 14.3924C31.8124 12.4458 33.5851 11.0181 35.4136 11.4921L46.9929 14.4936C48.6027 14.9108 49.7315 16.4051 49.7315 18.1189L49.7315 38.3097C49.7315 40.2563 47.9588 41.6839 46.1303 41.21L34.551 38.2085Z" fill="#0077FF"/>
<path d="M12.7568 47.5061C11.147 47.0888 10.0182 45.5946 10.0182 43.8808L10.0183 23.69C10.0183 21.7434 11.7909 20.3158 13.6194 20.7897L25.1987 23.7912C26.8085 24.2085 27.9373 25.7028 27.9373 27.4166L27.9373 47.6073C27.9373 49.5539 26.1646 50.9816 24.3361 50.5076L12.7568 47.5061Z" fill="#0077FF"/>
<path d="M23.6541 42.8574C22.0443 42.4401 20.9155 40.9458 20.9155 39.232L20.9155 19.0413C20.9155 17.0947 22.6881 15.667 24.5166 16.141L36.096 19.1425C37.7058 19.5598 38.8345 21.054 38.8345 22.7678L38.8345 42.9586C38.8345 44.9052 37.0619 46.3328 35.2334 45.8589L23.6541 42.8574Z" fill="#0077FF"/>
<path d="M31.2327 44.8272C30.7248 44.693 30.3652 44.2414 30.348 43.7164L29.8432 28.2657C29.6978 26.2284 28.2427 24.6075 26.72 24.1264C26.6301 24.0979 26.5335 24.1352 26.4814 24.2138C26.4309 24.29 26.4507 24.3936 26.5221 24.4508C26.8969 24.7511 27.9381 25.7393 27.9381 27.4461L27.935 43.9601L31.2327 44.8272Z" fill="white"/>
<path d="M42.1322 40.1744C41.6248 40.0427 41.2647 39.5925 41.2476 39.0686L40.7427 23.6189C40.5973 21.5817 39.1422 19.9607 37.6195 19.4796C37.5296 19.4512 37.433 19.4884 37.3809 19.567C37.3303 19.6432 37.3502 19.7468 37.4215 19.804C37.7963 20.1044 38.8375 21.0925 38.8375 22.7994L38.8345 39.3189L42.1322 40.1744Z" fill="white"/>
<path d="M94.1457 35.6187C98.6704 34.4217 101.644 30.8307 101.644 26.1314C101.644 20.3237 97.1622 16.245 90.8707 16.245H79.6667V47.5H84.8378V36.0177H88.5006L96.5158 47.5H102.592L94.1457 35.6187ZM90.8707 21.1217C94.1026 21.1217 96.3434 23.161 96.3434 26.1314C96.3434 29.1017 94.1026 31.141 90.8707 31.141H84.8378V21.1217H90.8707Z" fill="white"/>
<path d="M114.23 47.9434C116.945 47.9434 119.444 46.4804 120.866 44.042L121.857 47.5H125.563V24.4467H120.608V37.791C120.608 41.0717 118.496 43.377 115.609 43.377C112.765 43.377 110.782 41.0717 110.782 37.791V24.4467H105.827V38.3674C105.827 43.909 109.447 47.9434 114.23 47.9434Z" fill="white"/>
<path d="M141.378 47.9434C147.11 47.9434 151.85 44.574 151.85 38.988C151.85 32.737 146.894 30.9194 142.628 29.412C139.31 28.2594 136.423 27.1954 136.423 24.4024C136.423 21.964 138.621 20.6784 141.206 20.6784C143.921 20.6784 145.86 22.1414 146.937 24.624L151.85 23.7817C150.299 18.905 146.377 15.8017 141.034 15.8017C135.518 15.8017 131.122 19.0824 131.122 24.6684C131.122 30.9637 136.078 32.6927 140.344 34.1557C143.619 35.264 146.55 36.328 146.55 39.1654C146.55 41.648 144.352 43.0667 141.422 43.0667C138.06 43.0667 136.25 41.4264 134.656 38.456L129.657 39.3427C131.122 44.6184 135.776 47.9434 141.378 47.9434Z" fill="white"/>
<path d="M165.331 43.0667C163.651 43.0667 162.832 42.2244 162.832 40.4954V28.88H169.511V24.4467H162.832V17.7967H159.126L157.876 24.4467H154.213V28.88H157.876V40.4954C157.876 45.0174 160.419 47.5 165.331 47.5H169.511L169.942 43.0667H165.331Z" fill="white"/>
<path d="M184.103 47.9434C191.127 47.9434 196.083 42.978 196.083 35.9734C196.083 28.9687 191.127 24.0034 184.103 24.0034C177.079 24.0034 172.124 28.9687 172.124 35.9734C172.124 42.978 177.079 47.9434 184.103 47.9434ZM184.103 43.2884C180.053 43.2884 177.295 40.318 177.295 35.9734C177.295 31.6287 180.053 28.6584 184.103 28.6584C188.154 28.6584 190.912 31.6287 190.912 35.9734C190.912 40.318 188.154 43.2884 184.103 43.2884Z" fill="white"/>
<path d="M205.347 47.5V33.8897C205.347 30.9637 206.726 29.3234 209.742 29.3234H212.586L212.156 24.4467H211.207C208.579 24.4467 206.553 25.2004 205.045 27.7717L204.097 24.4467H200.391V47.5H205.347Z" fill="white"/>
<path d="M236.971 35.7074C236.971 29.0574 232.145 24.0034 225.336 24.0034C218.527 24.0034 213.701 29.013 213.701 35.9734C213.701 42.9337 218.527 47.9434 225.336 47.9434C229.99 47.9434 234.386 45.6824 236.066 41.2934L231.412 40.4954C230.335 42.1357 228.266 43.2884 225.638 43.2884C221.846 43.2884 219.346 40.8944 218.872 37.3477H236.885C236.928 36.86 236.971 36.328 236.971 35.7074ZM225.336 28.4367C228.439 28.4367 230.766 30.476 231.585 33.3577H219.174C219.993 30.3874 222.32 28.4367 225.336 28.4367Z" fill="white"/>
</svg>
