<svg width="168" height="42" viewBox="0 0 168 42" fill="none" xmlns="http://www.w3.org/2000/svg">
<path fill-rule="evenodd" clip-rule="evenodd" d="M20.16 42C10.6565 42 5.90474 42 2.95236 39.0476C-2.60327e-07 36.0953 -4.69824e-07 31.3434 -8.88815e-07 21.8399L-9.62884e-07 20.1599C-1.38187e-06 10.6563 -1.59137e-06 5.90456 2.95236 2.9522C5.90473 3.5588e-06 10.6565 3.35287e-06 20.16 2.941e-06L20.16 2.941e-06L21.84 2.86819e-06L21.84 2.86819e-06C31.3435 2.45633e-06 36.0953 2.2504e-06 39.0476 2.9522C42 5.90455 42 10.6563 42 20.1599L42 21.8399C42 31.3434 42 36.0953 39.0476 39.0476C36.0953 42 31.3435 42 21.84 42L20.16 42Z" fill="#0077FF"/>
<path d="M24.2869 25.8832C23.1553 25.6005 22.3619 24.5882 22.3619 23.4273L22.3619 9.74965C22.3619 8.43098 23.6079 7.46386 24.8932 7.78493L33.0327 9.8182C34.1643 10.1009 34.9577 11.1131 34.9577 12.2741L34.9577 25.9517C34.9577 27.2704 33.7116 28.2375 32.4263 27.9164L24.2869 25.8832Z" fill="white"/>
<path d="M8.96715 32.1815C7.83555 31.8989 7.04211 30.8866 7.04211 29.7257L7.04212 16.048C7.04212 14.7294 8.28816 13.7623 9.57346 14.0833L17.7129 16.1166C18.8445 16.3993 19.6379 17.4115 19.6379 18.5725L19.6379 32.2501C19.6379 33.5688 18.3919 34.5359 17.1066 34.2148L8.96715 32.1815Z" fill="white"/>
<path d="M16.6271 29.0324C15.4955 28.7497 14.7021 27.7375 14.7021 26.5765L14.7021 12.8989C14.7021 11.5802 15.9481 10.6131 17.2334 10.9342L25.3729 12.9674C26.5045 13.2501 27.2979 14.2623 27.2979 15.4233L27.2979 29.1009C27.2979 30.4196 26.0519 31.3867 24.7666 31.0656L16.6271 29.0324Z" fill="white"/>
<path d="M21.9544 30.3668C21.5979 30.276 21.3443 29.9608 21.3318 29.5932L20.9777 19.1477C20.8753 17.7652 19.8491 16.6658 18.7767 16.342C18.7165 16.3238 18.6522 16.3483 18.6165 16.4001C18.5803 16.4527 18.5943 16.5256 18.6448 16.5647C18.9096 16.7697 19.6385 17.4387 19.6385 18.5926L19.6363 29.7794L21.9544 30.3668Z" fill="#0077FF"/>
<path d="M29.6159 27.2149C29.2598 27.1258 29.0058 26.8116 28.9934 26.4447L28.6392 15.9999C28.5368 14.6174 27.5106 13.5179 26.4382 13.1941C26.378 13.1759 26.3137 13.2004 26.278 13.2522C26.2418 13.3049 26.2558 13.3778 26.3063 13.4169C26.5711 13.6219 27.3 14.2908 27.3 15.4447L27.2979 26.6354L29.6159 27.2149Z" fill="#0077FF"/>
<path d="M66.1778 24.1288C69.3583 23.3179 71.4484 20.8853 71.4484 17.7019C71.4484 13.7676 68.2981 11.0047 63.8756 11.0047H56V32.1774H59.6349V24.399H62.2096L67.8438 32.1774H72.1148L66.1778 24.1288ZM63.8756 14.3082C66.1475 14.3082 67.7226 15.6897 67.7226 17.7019C67.7226 19.714 66.1475 21.0955 63.8756 21.0955H59.6349V14.3082H63.8756Z" fill="#212121"/>
<path d="M80.2955 32.4777C82.2038 32.4777 83.9607 31.4867 84.9603 29.8349L85.657 32.1774H88.262V16.5606H84.7785V25.6003C84.7785 27.8227 83.2943 29.3844 81.2648 29.3844C79.2656 29.3844 77.8722 27.8227 77.8722 25.6003V16.5606H74.3887V25.9908C74.3887 29.7448 76.9332 32.4777 80.2955 32.4777Z" fill="#212121"/>
<path d="M99.379 32.4777C103.408 32.4777 106.74 30.1953 106.74 26.4112C106.74 22.1767 103.256 20.9453 100.257 19.9242C97.925 19.1434 95.8955 18.4226 95.8955 16.5306C95.8955 14.8788 97.4404 14.0079 99.2578 14.0079C101.166 14.0079 102.529 14.999 103.287 16.6808L106.74 16.1101C105.649 12.8066 102.893 10.7043 99.1367 10.7043C95.2594 10.7043 92.1698 12.9267 92.1698 16.7108C92.1698 20.9754 95.6532 22.1466 98.652 23.1377C100.954 23.8885 103.014 24.6093 103.014 26.5313C103.014 28.2131 101.469 29.1742 99.4093 29.1742C97.0466 29.1742 95.7744 28.063 94.6536 26.0508L91.1399 26.6515C92.1698 30.2253 95.4412 32.4777 99.379 32.4777Z" fill="#212121"/>
<path d="M116.216 29.1742C115.035 29.1742 114.459 28.6036 114.459 27.4323V19.5639H119.154V16.5606H114.459V12.0558H111.854L110.976 16.5606H108.401V19.5639H110.976V27.4323C110.976 30.4956 112.763 32.1774 116.216 32.1774H119.154L119.457 29.1742H116.216Z" fill="#212121"/>
<path d="M129.412 32.4777C134.349 32.4777 137.832 29.1141 137.832 24.369C137.832 19.6239 134.349 16.2603 129.412 16.2603C124.474 16.2603 120.991 19.6239 120.991 24.369C120.991 29.1141 124.474 32.4777 129.412 32.4777ZM129.412 29.3243C126.564 29.3243 124.626 27.3122 124.626 24.369C124.626 21.4259 126.564 19.4137 129.412 19.4137C132.259 19.4137 134.198 21.4259 134.198 24.369C134.198 27.3122 132.259 29.3243 129.412 29.3243Z" fill="#212121"/>
<path d="M144.344 32.1774V22.9575C144.344 20.9754 145.314 19.8642 147.434 19.8642H149.433L149.13 16.5606H148.464C146.616 16.5606 145.192 17.0712 144.132 18.8131L143.466 16.5606H140.861V32.1774H144.344Z" fill="#212121"/>
<path d="M166.574 24.1888C166.574 19.684 163.181 16.2603 158.395 16.2603C153.609 16.2603 150.217 19.654 150.217 24.369C150.217 29.0841 153.609 32.4777 158.395 32.4777C161.667 32.4777 164.756 30.9461 165.938 27.9729L162.666 27.4323C161.909 28.5435 160.455 29.3243 158.607 29.3243C155.942 29.3243 154.185 27.7026 153.852 25.3H166.513C166.544 24.9697 166.574 24.6093 166.574 24.1888ZM158.395 19.2635C160.576 19.2635 162.212 20.645 162.787 22.5971H154.064C154.639 20.585 156.275 19.2635 158.395 19.2635Z" fill="#212121"/>
</svg>

