<svg width="365" height="547" viewBox="0 0 365 547" fill="none" xmlns="http://www.w3.org/2000/svg">
<path d="M127.622 218.863L247.081 49.4963C259.506 32.0685 283.768 28.0045 301.266 40.4255C318.761 52.8551 322.87 77.0629 310.437 94.4883L259.23 165.573" stroke="#212121" stroke-width="3" stroke-miterlimit="10"/>
<path d="M59.2344 210.073L105.757 37.5124C111.297 16.8373 132.595 4.5743 153.338 10.1324C174.073 15.6883 186.397 36.9513 180.855 57.6349L135.127 228.296" fill="white"/>
<path d="M59.2344 210.073L105.757 37.5124C111.297 16.8373 132.595 4.5743 153.338 10.1324C174.073 15.6883 186.397 36.9513 180.855 57.6349L135.127 228.296" stroke="#212121" stroke-width="3" stroke-miterlimit="10"/>
<path d="M77.6262 204.946L238.18 185.915L240.812 208.032C243.464 230.347 227.49 250.558 205.123 253.172L161.897 258.266C165.99 271.522 166.526 286.056 162.673 300.434C152.513 338.351 115.455 361.911 77.4292 356.185C74.5838 355.759 71.7282 355.167 68.8817 354.405" fill="white"/>
<path d="M68.8817 354.405C71.7282 355.167 74.5838 355.759 77.4292 356.185C115.455 361.911 152.513 338.351 162.673 300.434C166.526 286.056 165.99 271.522 161.897 258.266L205.123 253.172C227.49 250.558 243.464 230.347 240.812 208.032L238.18 185.915L77.6262 204.946C48.247 209.188 22.8999 229.947 14.639 260.777C6.37818 291.607 18.2696 323.11 42.2422 341.365L2 490.698L204.77 545.031L248.242 383.574C267.789 374.303 283.276 356.867 289.303 334.373C297.563 303.548 285.687 272.061 261.73 253.805" stroke="#212121" stroke-width="3" stroke-miterlimit="10"/>
<path d="M213.278 189.073C215.17 186.464 217.164 183.714 219.304 180.762C231.876 163.424 256.169 159.554 273.566 172.117C290.963 184.68 294.876 208.92 282.305 226.257L247.345 274.472C234.774 291.809 210.48 295.68 193.083 283.116C184.012 276.565 178.607 266.84 177.294 256.573" stroke="#212121" stroke-width="3" stroke-miterlimit="10"/>
<path d="M342.082 275.858C354.653 258.52 350.741 234.28 333.344 221.717C315.947 209.154 291.653 213.024 279.082 230.362L244.123 278.576C231.552 295.914 235.464 320.153 252.861 332.717C270.258 345.28 294.552 341.41 307.123 324.072L342.082 275.858Z" fill="white" stroke="#212121" stroke-width="3" stroke-miterlimit="10"/>
</svg>
